# xmcd
# Track frame offsets:
# 150
# 12960
# 33310
# 47065
# 64040
# 75645
# 92345
# 108797
# 126412
# 143360
#
# Disc length: 2216 seconds
# Revision: 0
# Processed by: cddbd v1.5.2PL0 Copyright (c) Steve Scherf et al.
# Submitted via: VisiTrax 2.10.3.257 - For more info visit www.synapsa.com
#
DISCID=7108a60a
DTITLE=Various Artist - Sony Country Cuts Volume 2
DYEAR=2001
DGENRE=
TTITLE0=Diamond, Neil - Leave a little room for god
TTITLE1=McGraw, Tim - Angry all the time
TTITLE2=Derailers, The - More of your love
TTITLE3=Chapin Carpenter, Mary - This is me leaving You
TTITLE4=Loveless, Patty - The boys are back in town
TTITLE5=Messina, Jo Dee - Saturday Night
TTITLE6=Tritt, Travis - Love of a woman
TTITLE7=BR549 - Too Lazy to Work too Nervous to Steal
TTITLE8=Walker, Tammy - Angel Eyes
TTITLE9=Billy Ray Cyrus - Southern Rain
EXTD=
EXTT0=
EXTT1=
EXTT2=
EXTT3=
EXTT4=
EXTT5=
EXTT6=
EXTT7=
EXTT8=
EXTT9=
PLAYORDER=
